{
  "accessors": [
    {
      "bufferView": 2,
      "componentType": 5126,
      "count": 65532,
      "max": [
        11.558133125305176,
        7.681522846221924,
        3.268254041671753
      ],
      "min": [
        -8.863042831420898,
        -12.862090110778809,
        -0.7256889939308167
      ],
      "type": "VEC3"
    },
    {
      "bufferView": 2,
      "byteOffset": 786384,
      "componentType": 5126,
      "count": 65532,
      "max": [
        0.9999834299087524,
        0.9999643564224243,
        0.9999998807907104
      ],
      "min": [
        -0.9999977350234985,
        -0.9999964237213135,
        -0.9999996423721313
      ],
      "type": "VEC3"
    },
    {
      "bufferView": 1,
      "componentType": 5126,
      "count": 65532,
      "max": [
        0.9978460073471069,
        0.9993500113487244
      ],
      "min": [
        0.000707999977748841,
        6.399999983841553e-05
      ],
      "type": "VEC2"
    },
    {
      "bufferView": 0,
      "componentType": 5125,
      "count": 303774,
      "type": "SCALAR"
    },
    {
      "bufferView": 2,
      "byteOffset": 1572768,
      "componentType": 5126,
      "count": 65532,
      "max": [
        11.493358612060547,
        7.479955196380615,
        3.260425090789795
      ],
      "min": [
        -8.775535583496094,
        -12.62161636352539,
        -0.7539470195770264
      ],
      "type": "VEC3"
    },
    {
      "bufferView": 2,
      "byteOffset": 2359152,
      "componentType": 5126,
      "count": 65532,
      "max": [
        0.9999921321868896,
        0.9999983310699463,
        0.9999998807907104
      ],
      "min": [
        -0.99997878074646,
        -0.9999953508377075,
        -0.9999996423721313
      ],
      "type": "VEC3"
    },
    {
      "bufferView": 1,
      "byteOffset": 524256,
      "componentType": 5126,
      "count": 65532,
      "max": [
        0.9994149804115295,
        0.9991999864578247
      ],
      "min": [
        6.399999983841553e-05,
        0.000707999977748841
      ],
      "type": "VEC2"
    },
    {
      "bufferView": 0,
      "byteOffset": 1215096,
      "componentType": 5125,
      "count": 301296,
      "type": "SCALAR"
    },
    {
      "bufferView": 2,
      "byteOffset": 3145536,
      "componentType": 5126,
      "count": 65532,
      "max": [
        11.528152465820313,
        7.5123209953308105,
        3.2582108974456787
      ],
      "min": [
        -8.827590942382813,
        -12.652530670166016,
        -0.7394649982452393
      ],
      "type": "VEC3"
    },
    {
      "bufferView": 2,
      "byteOffset": 3931920,
      "componentType": 5126,
      "count": 65532,
      "max": [
        0.9999953508377075,
        0.9999271631240845,
        0.9999998807907104
      ],
      "min": [
        -0.9999958276748657,
        -0.9999940395355225,
        -0.9999994039535522
      ],
      "type": "VEC3"
    },
    {
      "bufferView": 1,
      "byteOffset": 1048512,
      "componentType": 5126,
      "count": 65532,
      "max": [
        0.9994909763336182,
        0.999576985836029
      ],
      "min": [
        0.0001250000059371814,
        0.0008730000117793679
      ],
      "type": "VEC2"
    },
    {
      "bufferView": 0,
      "byteOffset": 2420280,
      "componentType": 5125,
      "count": 281922,
      "type": "SCALAR"
    },
    {
      "bufferView": 2,
      "byteOffset": 4718304,
      "componentType": 5126,
      "count": 53781,
      "max": [
        11.534372329711914,
        7.5963640213012695,
        3.245574951171875
      ],
      "min": [
        -8.821149826049805,
        -12.85871410369873,
        -0.7344319820404053
      ],
      "type": "VEC3"
    },
    {
      "bufferView": 2,
      "byteOffset": 5363676,
      "componentType": 5126,
      "count": 53781,
      "max": [
        0.999998927116394,
        0.9999983310699463,
        0.9999998807907104
      ],
      "min": [
        -0.9999243021011353,
        -0.9999860525131226,
        -0.9999991655349731
      ],
      "type": "VEC3"
    },
    {
      "bufferView": 1,
      "byteOffset": 1572768,
      "componentType": 5126,
      "count": 53781,
      "max": [
        0.9995089769363403,
        0.9995750188827515
      ],
      "min": [
        0.00019299999985378236,
        0.00019299999985378236
      ],
      "type": "VEC2"
    },
    {
      "bufferView": 0,
      "byteOffset": 3547968,
      "componentType": 5125,
      "count": 152124,
      "type": "SCALAR"
    },
    {
      "bufferView": 2,
      "byteOffset": 6009048,
      "componentType": 5126,
      "count": 65532,
      "max": [
        11.49477481842041,
        7.689469814300537,
        3.283560037612915
      ],
      "min": [
        -8.85802936553955,
        -12.88250732421875,
        -0.7300980091094971
      ],
      "type": "VEC3"
    },
    {
      "bufferView": 2,
      "byteOffset": 6795432,
      "componentType": 5126,
      "count": 65532,
      "max": [
        0.9999972581863403,
        0.9996311068534851,
        0.9999997615814209
      ],
      "min": [
        -0.999996542930603,
        -0.9999988079071045,
        -0.999997615814209
      ],
      "type": "VEC3"
    },
    {
      "bufferView": 1,
      "byteOffset": 2003016,
      "componentType": 5126,
      "count": 65532,
      "max": [
        0.9988909959793091,
        0.9989179968833923
      ],
      "min": [
        0.0006980000180192292,
        6.600000051548705e-05
      ],
      "type": "VEC2"
    },
    {
      "bufferView": 0,
      "byteOffset": 4156464,
      "componentType": 5125,
      "count": 304881,
      "type": "SCALAR"
    },
    {
      "bufferView": 2,
      "byteOffset": 7581816,
      "componentType": 5126,
      "count": 65532,
      "max": [
        11.534491539001465,
        7.505535125732422,
        3.2892870903015137
      ],
      "min": [
        -8.598917007446289,
        -12.661442756652832,
        -0.7217180132865906
      ],
      "type": "VEC3"
    },
    {
      "bufferView": 2,
      "byteOffset": 8368200,
      "componentType": 5126,
      "count": 65532,
      "max": [
        0.9999809265136719,
        0.9999871253967285,
        0.9999998807907104
      ],
      "min": [
        -0.9999903440475464,
        -0.9999996423721313,
        -0.9999997615814209
      ],
      "type": "VEC3"
    },
    {
      "bufferView": 1,
      "byteOffset": 2527272,
      "componentType": 5126,
      "count": 65532,
      "max": [
        0.9986690282821655,
        0.9988409876823425
      ],
      "min": [
        0.00019700000120792538,
        0.0003279999946244061
      ],
      "type": "VEC2"
    },
    {
      "bufferView": 0,
      "byteOffset": 5375988,
      "componentType": 5125,
      "count": 300645,
      "type": "SCALAR"
    },
    {
      "bufferView": 2,
      "byteOffset": 9154584,
      "componentType": 5126,
      "count": 65532,
      "max": [
        11.503669738769531,
        7.491847991943359,
        3.252829074859619
      ],
      "min": [
        -8.625798225402832,
        -12.840949058532715,
        -0.7443370223045349
      ],
      "type": "VEC3"
    },
    {
      "bufferView": 2,
      "byteOffset": 9940968,
      "componentType": 5126,
      "count": 65532,
      "max": [
        0.9999972581863403,
        0.9999604225158691,
        0.9999998807907104
      ],
      "min": [
        -0.999996542930603,
        -0.9999977350234985,
        -0.9999997615814209
      ],
      "type": "VEC3"
    },
    {
      "bufferView": 1,
      "byteOffset": 3051528,
      "componentType": 5126,
      "count": 65532,
      "max": [
        0.9988660216331482,
        0.9989759922027588
      ],
      "min": [
        0.0007220000261440873,
        0.00019700000120792538
      ],
      "type": "VEC2"
    },
    {
      "bufferView": 0,
      "byteOffset": 6578568,
      "componentType": 5125,
      "count": 277266,
      "type": "SCALAR"
    },
    {
      "bufferView": 2,
      "byteOffset": 10727352,
      "componentType": 5126,
      "count": 43842,
      "max": [
        11.504176139831543,
        7.606029987335205,
        3.248552083969116
      ],
      "min": [
        -8.692702293395996,
        -12.870240211486816,
        -0.738306999206543
      ],
      "type": "VEC3"
    },
    {
      "bufferView": 2,
      "byteOffset": 11253456,
      "componentType": 5126,
      "count": 43842,
      "max": [
        0.999998927116394,
        0.999742329120636,
        0.9999997615814209
      ],
      "min": [
        -0.9999830722808838,
        -0.9999946355819702,
        -1.0
      ],
      "type": "VEC3"
    },
    {
      "bufferView": 1,
      "byteOffset": 3575784,
      "componentType": 5126,
      "count": 43842,
      "max": [
        0.9995629787445068,
        0.9996060132980347
      ],
      "min": [
        6.600000051548705e-05,
        6.600000051548705e-05
      ],
      "type": "VEC2"
    },
    {
      "bufferView": 0,
      "byteOffset": 7687632,
      "componentType": 5125,
      "count": 115512,
      "type": "SCALAR"
    }
  ],
  "asset": {
    "extras": {
      "author": "SPLEEN VISION (https://sketchfab.com/spleen.vision)",
      "license": "CC-BY-4.0 (http://creativecommons.org/licenses/by/4.0/)",
      "source": "https://sketchfab.com/3d-models/parking-garage-98f7bc75350f4fb7ad36830f58fc99be",
      "title": "parking garage"
    },
    "generator": "Sketchfab-12.88.0",
    "version": "2.0"
  },
  "bufferViews": [
    {
      "buffer": 0,
      "byteLength": 8149680,
      "name": "floatBufferViews",
      "target": 34963
    },
    {
      "buffer": 0,
      "byteLength": 3926520,
      "byteOffset": 8149680,
      "byteStride": 8,
      "name": "floatBufferViews",
      "target": 34962
    },
    {
      "buffer": 0,
      "byteLength": 11779560,
      "byteOffset": 12076200,
      "byteStride": 12,
      "name": "floatBufferViews",
      "target": 34962
    }
  ],
  "buffers": [
    {
      "byteLength": 23855760,
      "uri": "scene.bin"
    }
  ],
  "extensionsUsed": [
    "KHR_materials_unlit"
  ],
  "images": [
    {
      "uri": "textures/material_baseColor.jpeg"
    },
    {
      "uri": "textures/material_1_baseColor.jpeg"
    }
  ],
  "materials": [
    {
      "doubleSided": true,
      "extensions": {
        "KHR_materials_unlit": {}
      },
      "name": "material",
      "pbrMetallicRoughness": {
        "baseColorTexture": {
          "index": 0
        },
        "metallicFactor": 0.0
      }
    },
    {
      "doubleSided": true,
      "extensions": {
        "KHR_materials_unlit": {}
      },
      "name": "material_1",
      "pbrMetallicRoughness": {
        "baseColorTexture": {
          "index": 1
        },
        "metallicFactor": 0.0
      }
    }
  ],
  "meshes": [
    {
      "name": "Object_0",
      "primitives": [
        {
          "attributes": {
            "NORMAL": 1,
            "POSITION": 0,
            "TEXCOORD_0": 2
          },
          "indices": 3,
          "material": 0,
          "mode": 4
        }
      ]
    },
    {
      "name": "Object_1",
      "primitives": [
        {
          "attributes": {
            "NORMAL": 5,
            "POSITION": 4,
            "TEXCOORD_0": 6
          },
          "indices": 7,
          "material": 0,
          "mode": 4
        }
      ]
    },
    {
      "name": "Object_2",
      "primitives": [
        {
          "attributes": {
            "NORMAL": 9,
            "POSITION": 8,
            "TEXCOORD_0": 10
          },
          "indices": 11,
          "material": 0,
          "mode": 4
        }
      ]
    },
    {
      "name": "Object_3",
      "primitives": [
        {
          "attributes": {
            "NORMAL": 13,
            "POSITION": 12,
            "TEXCOORD_0": 14
          },
          "indices": 15,
          "material": 0,
          "mode": 4
        }
      ]
    },
    {
      "name": "Object_4",
      "primitives": [
        {
          "attributes": {
            "NORMAL": 17,
            "POSITION": 16,
            "TEXCOORD_0": 18
          },
          "indices": 19,
          "material": 1,
          "mode": 4
        }
      ]
    },
    {
      "name": "Object_5",
      "primitives": [
        {
          "attributes": {
            "NORMAL": 21,
            "POSITION": 20,
            "TEXCOORD_0": 22
          },
          "indices": 23,
          "material": 1,
          "mode": 4
        }
      ]
    },
    {
      "name": "Object_6",
      "primitives": [
        {
          "attributes": {
            "NORMAL": 25,
            "POSITION": 24,
            "TEXCOORD_0": 26
          },
          "indices": 27,
          "material": 1,
          "mode": 4
        }
      ]
    },
    {
      "name": "Object_7",
      "primitives": [
        {
          "attributes": {
            "NORMAL": 29,
            "POSITION": 28,
            "TEXCOORD_0": 30
          },
          "indices": 31,
          "material": 1,
          "mode": 4
        }
      ]
    }
  ],
  "nodes": [
    {
      "children": [
        1
      ],
      "matrix": [
        0.8215416073799133,
        0.0,
        0.0,
        0.0,
        0.0,
        1.8241888164014804e-16,
        -0.8215416073799133,
        0.0,
        0.0,
        0.8215416073799133,
        1.8241888164014804e-16,
        0.0,
        0.0,
        0.0,
        0.0,
        1.0
      ],
      "name": "Sketchfab_model"
    },
    {
      "children": [
        2,
        3,
        4,
        5,
        6,
        7,
        8,
        9
      ],
      "name": "parking garage.obj.cleaner.materialmerger.gles"
    },
    {
      "mesh": 0,
      "name": "Object_2"
    },
    {
      "mesh": 1,
      "name": "Object_3"
    },
    {
      "mesh": 2,
      "name": "Object_4"
    },
    {
      "mesh": 3,
      "name": "Object_5"
    },
    {
      "mesh": 4,
      "name": "Object_6"
    },
    {
      "mesh": 5,
      "name": "Object_7"
    },
    {
      "mesh": 6,
      "name": "Object_8"
    },
    {
      "mesh": 7,
      "name": "Object_9"
    }
  ],
  "samplers": [
    {
      "magFilter": 9729,
      "minFilter": 9987,
      "wrapS": 10497,
      "wrapT": 10497
    }
  ],
  "scene": 0,
  "scenes": [
    {
      "name": "Sketchfab_Scene",
      "nodes": [
        0
      ]
    }
  ],
  "textures": [
    {
      "sampler": 0,
      "source": 0
    },
    {
      "sampler": 0,
      "source": 1
    }
  ]
}
